<?xml version="1.0" standalone="no"?>
<!DOCTYPE svg PUBLIC "-//W3C//DTD SVG 20010904//EN"
 "http://www.w3.org/TR/2001/REC-SVG-20010904/DTD/svg10.dtd">
<svg version="1.0" xmlns="http://www.w3.org/2000/svg"
 width="512.000000pt" height="512.000000pt" viewBox="0 0 512.000000 512.000000"
 preserveAspectRatio="xMidYMid meet">
<metadata>
Created by potrace 1.14, written by Peter Selinger 2001-2017
</metadata>
<g transform="translate(0.000000,512.000000) scale(0.100000,-0.100000)"
fill="#000000" stroke="none">
<path d="M2435 4849 c-22 -4 -56 -8 -76 -8 -19 -1 -54 -10 -77 -21 -32 -16
-61 -20 -135 -20 -70 0 -103 -5 -133 -19 -21 -10 -61 -21 -88 -25 -28 -3 -72
-17 -100 -31 -27 -14 -63 -25 -79 -25 -16 0 -41 -8 -55 -18 -15 -10 -47 -24
-72 -32 -25 -8 -57 -22 -72 -32 -14 -10 -31 -18 -36 -18 -6 0 -47 -22 -92 -50
-45 -27 -87 -50 -93 -50 -7 -1 -28 -14 -47 -30 -19 -17 -40 -30 -47 -30 -7 0
-13 -4 -13 -8 0 -4 -12 -15 -27 -24 -28 -16 -59 -41 -98 -77 -11 -10 -43 -36
-70 -56 -53 -40 -156 -143 -215 -214 -19 -23 -54 -63 -78 -89 -24 -26 -50 -60
-59 -77 -16 -30 -71 -105 -85 -115 -4 -3 -12 -17 -17 -30 -6 -14 -24 -47 -41
-75 -46 -78 -108 -207 -116 -240 -4 -16 -15 -40 -24 -52 -10 -13 -21 -40 -25
-60 -4 -20 -15 -54 -26 -75 -10 -20 -19 -49 -19 -63 0 -15 -11 -59 -24 -98
-13 -40 -27 -103 -30 -141 -4 -38 -14 -96 -22 -130 -10 -40 -17 -132 -21 -271
-5 -199 -4 -217 21 -336 14 -70 26 -143 26 -163 0 -20 9 -54 20 -75 10 -21 24
-66 29 -99 5 -33 16 -73 24 -89 8 -15 18 -44 22 -63 4 -19 15 -51 25 -70 10
-19 43 -85 73 -146 31 -62 69 -131 86 -154 17 -24 31 -47 31 -51 0 -14 64
-106 110 -159 12 -14 30 -36 39 -50 9 -14 25 -36 36 -49 37 -43 242 -246 275
-271 18 -14 39 -31 46 -38 7 -6 16 -12 21 -12 5 0 15 -9 23 -20 8 -11 19 -20
25 -20 5 -1 26 -14 45 -30 19 -17 39 -30 46 -30 6 0 19 -9 29 -20 10 -11 23
-20 30 -20 6 0 21 -9 33 -20 26 -24 89 -61 157 -91 17 -7 42 -21 57 -31 14
-10 34 -18 45 -18 10 0 29 -9 43 -20 14 -11 33 -20 43 -20 9 0 36 -8 60 -19
82 -36 98 -41 128 -41 16 0 48 -9 72 -20 23 -10 87 -26 142 -35 55 -9 123 -21
150 -27 67 -15 419 -15 520 0 205 30 300 46 305 51 12 15 64 31 101 31 22 0
58 9 79 19 22 11 62 25 90 32 27 7 50 16 50 19 0 4 19 12 43 19 23 7 53 19 67
27 14 8 59 31 100 51 41 20 78 41 81 45 3 5 28 21 56 36 77 42 194 125 238
171 22 22 43 41 47 41 12 0 65 48 163 146 87 88 113 117 189 214 20 25 40 50
45 56 5 6 17 26 26 45 10 19 26 41 35 49 9 8 21 26 25 40 4 14 13 31 19 39 13
16 100 173 117 211 6 14 24 53 40 88 16 34 29 74 29 89 0 14 11 49 24 77 13
28 27 72 30 99 4 26 15 66 25 90 11 24 21 80 25 132 3 50 13 126 21 170 9 44
19 139 22 210 5 108 2 148 -16 240 -12 61 -26 152 -31 203 -6 51 -16 105 -24
120 -7 15 -17 47 -21 72 -4 25 -15 63 -25 85 -10 22 -23 59 -29 81 -6 23 -18
47 -26 54 -8 7 -15 22 -15 33 0 18 -72 174 -100 217 -6 8 -15 26 -20 40 -6 14
-26 45 -45 70 -19 25 -43 60 -52 78 -9 17 -20 32 -24 32 -3 0 -12 14 -19 30
-7 17 -20 36 -30 43 -9 7 -25 27 -34 45 -25 49 -341 362 -365 362 -5 0 -22 14
-38 30 -15 17 -32 30 -36 30 -4 0 -17 8 -28 18 -10 11 -32 25 -47 33 -15 8
-36 22 -46 32 -11 9 -26 17 -33 17 -7 0 -13 4 -13 9 0 5 -24 20 -52 34 -29 15
-64 33 -78 40 -14 8 -56 29 -95 47 -38 18 -87 41 -108 52 -22 10 -48 18 -58
18 -11 0 -38 8 -62 19 -82 36 -98 41 -126 41 -15 0 -31 3 -35 7 -16 16 -85 33
-136 33 -53 0 -108 14 -140 35 -8 5 -89 10 -180 10 -91 0 -169 3 -175 6 -5 3
-28 2 -50 -2z m-139 -80 c7 -6 12 -57 12 -142 1 -132 9 -182 34 -212 44 -53
131 -136 183 -175 33 -25 62 -47 65 -50 3 -3 24 -15 48 -27 23 -13 61 -33 85
-45 23 -13 44 -26 45 -30 2 -5 10 -8 18 -8 8 0 14 -4 14 -10 0 -5 7 -10 16
-10 9 0 28 -8 42 -18 15 -10 54 -24 87 -31 33 -7 80 -19 105 -28 25 -9 59 -17
75 -20 36 -5 106 -24 120 -33 6 -4 37 -12 70 -19 33 -7 77 -22 98 -32 22 -10
52 -19 67 -19 16 0 32 -4 35 -10 3 -5 15 -10 26 -10 10 0 19 -4 19 -10 0 -5 9
-10 19 -10 11 0 23 -4 26 -10 3 -5 15 -10 26 -10 17 0 56 -17 69 -30 3 -3 23
-11 45 -19 22 -8 52 -22 67 -32 14 -11 32 -19 40 -19 7 0 24 -9 38 -20 14 -11
31 -20 38 -20 15 0 75 -39 80 -52 2 -4 9 -8 16 -8 15 0 107 -94 124 -127 7
-12 12 -51 12 -86 0 -79 8 -90 105 -141 43 -23 104 -74 223 -187 18 -18 45
-55 59 -83 25 -47 27 -62 27 -171 1 -111 -2 -127 -33 -220 -19 -55 -42 -116
-53 -135 -10 -19 -18 -40 -18 -46 0 -16 -79 -172 -90 -179 -5 -3 -11 -18 -15
-33 -7 -30 -52 -84 -85 -102 -17 -9 -29 -9 -51 0 -28 12 -29 14 -29 88 0 83
-14 142 -40 170 -10 10 -25 32 -33 48 -9 16 -63 78 -120 138 l-103 110 -80 0
c-61 1 -91 -4 -125 -20 -215 -102 -228 -111 -273 -201 -36 -73 -37 -164 -1
-214 51 -68 85 -89 144 -89 30 0 69 5 86 11 37 14 73 7 106 -20 l23 -19 -18
-73 c-19 -76 -31 -105 -50 -125 -6 -6 -20 -22 -32 -35 -40 -45 -93 -79 -124
-79 -11 0 -39 -8 -63 -19 -23 -10 -79 -24 -124 -31 -88 -13 -131 -6 -185 31
-14 11 -30 19 -35 19 -4 0 -19 9 -33 20 -39 31 -63 24 -118 -30 -54 -53 -65
-79 -82 -190 -5 -36 -17 -90 -25 -120 -22 -81 -19 -110 20 -186 41 -83 99
-147 195 -214 19 -13 41 -30 48 -37 18 -17 71 -40 107 -47 17 -3 55 -10 85
-16 97 -18 168 3 246 74 68 63 134 62 134 -1 0 -32 -59 -144 -90 -173 -3 -3
-28 -34 -55 -70 -27 -36 -55 -69 -63 -74 -8 -4 -21 -17 -31 -28 -9 -10 -32
-26 -51 -35 -19 -9 -47 -25 -62 -35 -14 -10 -33 -18 -41 -18 -9 0 -17 -4 -19
-8 -1 -5 -25 -23 -53 -42 -27 -19 -55 -39 -61 -45 -30 -27 -55 -45 -63 -45 -5
0 -35 -13 -66 -30 -48 -25 -69 -30 -127 -30 -70 0 -155 -15 -172 -31 -13 -12
-119 -12 -132 0 -11 10 -182 31 -255 31 -60 0 -221 52 -252 81 -12 10 -25 19
-30 19 -6 0 -33 17 -61 38 -28 22 -61 45 -73 54 -52 34 -180 168 -208 217 -53
93 -54 94 -124 94 -36 -1 -68 -6 -78 -14 -19 -17 -200 -16 -217 1 -5 5 -28 10
-49 10 -87 0 -141 28 -292 147 -132 106 -155 124 -227 189 -15 13 -30 24 -34
24 -12 0 -83 86 -84 101 0 9 -22 49 -49 90 -30 44 -54 95 -61 124 -6 28 -20
73 -33 100 -20 47 -22 63 -20 242 2 197 8 233 41 233 21 0 63 -42 85 -85 20
-40 215 -237 250 -252 36 -17 171 -16 217 0 20 6 48 20 63 30 14 9 33 17 42
17 8 0 15 5 15 10 0 6 7 10 15 10 8 0 15 5 15 10 0 6 7 10 15 10 8 0 15 5 15
10 0 6 6 10 13 10 7 0 23 9 35 20 12 11 25 20 30 20 14 0 98 82 112 108 26 52
-15 91 -130 122 -45 12 -55 16 -118 52 -36 20 -90 72 -131 128 -14 17 -38 46
-54 63 -47 50 -60 86 -65 174 -5 95 3 113 53 113 25 0 42 -9 67 -35 32 -35 98
-72 166 -94 35 -11 127 2 147 20 5 5 19 9 32 9 21 0 72 18 83 30 3 3 19 12 35
20 40 19 124 109 132 139 3 14 17 40 30 59 12 19 23 47 23 61 0 14 9 40 20 56
16 24 20 47 20 115 -1 51 -5 91 -13 101 -12 15 -161 119 -171 119 -12 0 -100
88 -133 132 -68 94 -133 226 -139 286 -12 109 36 202 102 202 27 0 43 -9 74
-41 22 -23 40 -45 40 -50 0 -13 111 -85 155 -100 22 -8 42 -16 45 -19 15 -15
61 -30 110 -35 30 -3 76 -8 101 -11 37 -5 47 -3 53 11 6 16 -16 68 -39 92 -7
6 -16 29 -20 50 -4 20 -16 55 -28 78 -29 56 -28 226 1 294 11 25 33 98 50 161
36 139 88 250 140 305 21 22 45 50 53 62 33 47 106 63 145 32z"/>
<path d="M3314 3446 c-11 -30 20 -67 183 -218 40 -38 59 -48 85 -48 84 0 129
121 65 176 -32 28 -112 64 -144 64 -33 1 -119 23 -129 33 -13 12 -54 8 -60 -7z"/>
</g>
</svg>
